<svg width="128" height="128" viewBox="0 0 128 128" xmlns="http://www.w3.org/2000/svg">
  <defs>
    <linearGradient id="g" x1="0%" y1="0%" x2="100%" y2="100%">
      <stop offset="0%" stop-color="#F65A9E"/>
      <stop offset="30%" stop-color="#F98C4B"/>
      <stop offset="60%" stop-color="#D9D95A"/>
      <stop offset="80%" stop-color="#4FBFA8"/>
      <stop offset="100%" stop-color="#3A8FC7"/>
    </linearGradient>
  </defs>
  <circle cx="64" cy="64" r="64" fill="url(#g)"/>
  <g transform="translate(34,34) scale(2.5)" fill="#FFFFFF">
    <path d="M17.65 6.35C16.2 4.9 14.21 4 12 4c-4.42 0-7.99 3.58-7.99 8s3.57 8 7.99 8c3.73 0 6.84-2.55 7.73-6h-2.08c-.82 2.33-3.04 4-5.65 4-3.31 0-6-2.69-6-6s2.69-6 6-6c1.66 0 3.14.69 4.22 1.78L13 11h7V4l-2.35 2.35z"/>
  </g>
</svg>
